<svg width="256" height="256" version="1.1" viewBox="0 -2 67.733 67.733" xmlns="http://www.w3.org/2000/svg">
	<g>
		<g transform="translate(12.308 -10.048)" fill="gold" aria-label="J">
			<g transform="translate(-19.004 10.048)">
				<path d="m33.834 57.686q-4.3307 0-7.6772-2.0341-3.3465-2.0997-5.2493-5.7743-1.8373-3.6745-1.9029-8.4646l5.7743-0.3937q0.06562 5.3806 2.4278 8.2677 2.3622 2.8871 6.6273 2.8871 4.4619 0 6.8241-3.084 2.4278-3.084 2.4278-8.727v-30.315h5.643v30.315q0 5.315-1.8373 9.252-1.8373 3.8714-5.1837 5.9711-3.2808 2.0997-7.874 2.0997z" fill="gold" />
			</g>
			<g transform="translate(-5.0254 22)">
				<rect transform="scale(-1,1)" x="-48.143" y="-2.8748" width="32.429" height="5.3933" />
			</g>
		</g>
	</g>
</svg>